<svg aria-hidden="true" style="position: absolute; width: 0; height: 0; overflow: hidden;" version="1.1" xmlns="http://www.w3.org/2000/svg" xmlns:xlink="http://www.w3.org/1999/xlink">
<defs>
<symbol id="icon-mail-envelope" viewBox="0 0 32 32">
<path d="M6.004 8h20.993c1.114 0 2.004 0.893 2.004 1.994v12.012c0 1.1-0.897 1.994-2.004 1.994h-20.993c-1.114 0-2.004-0.893-2.004-1.994v-12.012c0-1.1 0.897-1.994 2.004-1.994zM7 11v1h4v-1h-4zM23 11v3h3v-3h-3zM24 12v1h1v-1h-1zM7 18v1h8v-1h-8zM7 20v1h8v-1h-8z"></path>
</symbol>
<symbol id="icon-lock-rounded-open" viewBox="0 0 32 32">
<path d="M21 23.915v2.594c0 0.271 0.232 0.491 0.5 0.491 0.276 0 0.5-0.228 0.5-0.491v-2.594c0.583-0.206 1-0.762 1-1.415 0-0.828-0.672-1.5-1.5-1.5s-1.5 0.672-1.5 1.5c0 0.653 0.417 1.209 1 1.415v0 0zM14 8.5c0-2.485-2.020-4.5-4.5-4.5-2.485 0-4.5 2.017-4.5 4.5v3.999c0 0.822-0.672 1.501-1.5 1.501-0.834 0-1.5-0.672-1.5-1.501v-4c0-4.143 3.358-7.499 7.5-7.499 4.134 0 7.5 3.358 7.5 7.499v7.501h11.991c1.663 0 3.009 1.347 3.009 3.009v4.991c0 4.409-3.581 8-7.999 8h-5.002c-4.413 0-7.999-3.582-7.999-8v-4.991c0-1.67 1.342-3.005 3-3.009v-7.5z"></path>
</symbol>
<symbol id="icon-award" viewBox="0 0 32 32">
<path d="M15.626 20.992l-4.025 10.485-1.726-3.876-3.876 1.726 3.978-10.363c1.581 1.202 3.53 1.945 5.648 2.028v0zM22.074 18.964l3.978 10.363-3.876-1.726-1.726 3.876-4.025-10.485c2.119-0.083 4.068-0.826 5.648-2.028v0 0zM16.026 20c4.971 0 9-4.029 9-9s-4.029-9-9-9c-4.971 0-9 4.029-9 9s4.029 9 9 9v0zM16.026 13.692l-3.5 2.308 1.5-4-3-2h3.5l1.5-4 1.5 4h3.5l-3 2 1.5 4-3.5-2.308z"></path>
</symbol>
<symbol id="icon-home" viewBox="0 0 32 32">
<path d="M32 18.451l-16-12.42-16 12.42v-5.064l16-12.42 16 12.42zM28 18v12h-8v-8h-8v8h-8v-12l12-9z"></path>
</symbol>
</defs>
</svg>
